<svg id="Layer_2" data-name="Layer 2" xmlns="http://www.w3.org/2000/svg" xmlns:xlink="http://www.w3.org/1999/xlink" viewBox="0 0 1449.93 2445.49"><defs><style>.cls-1,.cls-3{fill:none;}.cls-2{clip-path:url(#clip-path);}.cls-3{stroke:#fe81e7;stroke-miterlimit:10;stroke-width:3px;}</style><clipPath id="clip-path" transform="translate(103.97 118.74)"><rect class="cls-1" x="0.5" y="0.5" width="1241" height="2201"/></clipPath></defs><g class="cls-2"><path class="cls-3" d="M852.71,382.11c-21.85-.76-44-8.23-59.7-23.42s-24.07-38.62-18.48-59.76c5.29-20,22.08-37.12,20.89-57.78-24.48,23.52-63.9,20-94.81,34-34.93,15.88-56.52,56.84-49.86,94.64.87,4.94,2.4,10.18,6.4,13.22s9.18,3.11,13.78,4.79c17.13,6.26,18.82,29.06,23.45,46.7,10,38.21,50,66.12,89.36,62.38,36.89-3.5,66.91-30.38,92.25-57.42" transform="translate(103.97 118.74)"/><path class="cls-3" d="M874.55,394.34c1.73,16.51,14.41,29.5,26.59,40.79,9.78,9.05,20.39,18.29,33.47,20.85a60.88,60.88,0,0,0,15.26.62,167.3,167.3,0,0,0,78.63-25.09" transform="translate(103.97 118.74)"/><path class="cls-3" d="M844.4,487l58.87,88.18c3.74,5.6,7.55,11.28,12.69,15.63,15.15,12.8,37.7,11,56.83,5.82A208.36,208.36,0,0,0,1025.61,574c5.3-3.2,10.61-6.79,14-12,2.71-4.14,4-9,5.21-13.81a616.1,616.1,0,0,0,17.5-116.08" transform="translate(103.97 118.74)"/><path class="cls-3" d="M1045.78,434.66c-13.32,10.19-27.63,21.95-30.42,38.48-1.94,11.49,2.17,23.14,1.92,34.79-.44,19.66-13,36.71-25,52.28" transform="translate(103.97 118.74)"/><path class="cls-3" d="M1076,445.48c-2.3,29.9,22.28,59.32,52.12,62.38l4.64-12.3c8.84,17.29,29.33,32.33,46.76,23.77,11.6-5.71,16.61-19.33,20-31.81,10.45-38.37,15.63-79.33,5.55-117.81C1191,316,1149.34,274.05,1105.4,240.1" transform="translate(103.97 118.74)"/><path class="cls-3" d="M1144.28,290.59c9,20.1,5.55,43.22,3,65.07s-3.56,45.81,9,63.87c11.92,17.11,35.15,27.63,38.06,48.28" transform="translate(103.97 118.74)"/><path class="cls-3" d="M1097.49,227.53c36.41-5.82,72.49,9.61,106.13,24.7,14.91,6.68,30.22,13.65,41.41,25.54,7.12,7.57,12.22,16.78,16.79,26.11a321.22,321.22,0,0,1,28,86.38c.86,5,1.6,10.05.71,15-1.92,10.71-11.56,19-22.18,21.35s-21.87-.45-31.46-5.58a68.61,68.61,0,0,1-22-18.64" transform="translate(103.97 118.74)"/><path class="cls-3" d="M1271.64,298.81l41.57-9.84c6-1.42,12.08-2.88,17.34-6.07s9.65-8.43,10.22-14.55c.47-5.13-1.74-10.3-.82-15.37.67-3.68,2.92-6.88,3.9-10.49,1.08-4,.59-8.19-.32-12.2-2.84-12.6-9.9-24.42-20.4-31.94s-24.51-10.38-36.81-6.44" transform="translate(103.97 118.74)"/><path class="cls-3" d="M972.85,124.24C942.76,87,941.08,34.36,948-13c3.44-23.39,8.84-47.05,21.48-67s33.65-35.88,57.26-37.12c7.16-.38,14.66.69,20.6,4.7,4.1,2.78,7.24,6.81,11.31,9.62,11.71,8.08,27.62,4.39,41.55,7.28,15.36,3.19,28,14.63,36,28.14s11.82,29,14.9,44.41c4.42,22.07,7.43,45,2.37,66.94-6,26.05-25.87,44.92-46.56,60.43-23.38,17.51-38.54,39.48-60.14,58.49" transform="translate(103.97 118.74)"/><path class="cls-3" d="M1107.8-75.68c3.56-1,6.77,2.36,8.78,5.48A101,101,0,0,1,1127,15.94c-1.67,4.85-3.71,9.58-5,14.55-3,12.12-1.27,25.39-6.43,36.77-3.17,7-9,13.78-7.48,21.33" transform="translate(103.97 118.74)"/><path class="cls-3" d="M938-49.92c-21.15-5.46-31.94-32-53.31-36.53-25-5.29-44.8,22-69.7,27.57-12.18,2.74-24.84.09-37.31.09S751.17-55,745.24-44c-6.87,12.72.18,28.2,7.29,40.78C769,25.86,786.38,54.8,809.33,79.11S861.42,123,894.24,129.4" transform="translate(103.97 118.74)"/><path class="cls-3" d="M780.34,70.38A479.45,479.45,0,0,0,693.8,83.81c-10.19,2.56-20.51,5.55-29.18,11.48-13.52,9.26-22.24,25.12-37.28,31.62-5.05,2.18-11.09,3.56-13.86,8.31-3.59,6.13.45,13.66,2,20.59,4.09,18.31-10,37.8-3.65,55.45,2.52,7,7.92,12.48,13.16,17.73,16.79,16.82,34.68,34.29,57.62,40.49,31.06,8.39,63.44-5.8,91.55-21.46,10.8-6,21.67-12.48,29.66-21.92" transform="translate(103.97 118.74)"/><path class="cls-3" d="M662.09,114.31a103,103,0,0,1,45.45-.54c14.85,3.18,28.79,9.61,43.27,14.18s30.26,7.25,44.77,2.77c9-2.77,17-8.15,25.68-11.87s18.94-5.67,27.39-1.46" transform="translate(103.97 118.74)"/><path class="cls-3" d="M1042.26,156.89c-25.88-33.7-74.08-44.11-115.57-34.93s-77.45,34.6-110,62c-10.7,9-22.17,20.77-20.23,34.62A71.75,71.75,0,0,0,839.88,220c20.13-5.48,18.12-8.53,37,.91,26.25,13.08,57.92,15.11,85.32,4.31a56.94,56.94,0,0,0,15-8.28c9.39-7.53,14.77-18.82,21.53-28.77s16.45-19.49,28.48-19.95" transform="translate(103.97 118.74)"/><path class="cls-3" d="M1041.39,167.43c9.53,3.25,14.93,13,19.45,22,19.15,38.11,38.78,78.41,36.69,121-1.23,25.07-10,49.09-18.78,72.6-1.83,4.87-3.82,10-7.83,13.3s-10.69,4-14.09.1-2.06-9.61-3.55-14.4c-2.43-7.8-11.38-11.51-15.9-18.32-8.58-13,1.62-29.58,9.74-42.84A166.7,166.7,0,0,0,1071.44,239" transform="translate(103.97 118.74)"/><path class="cls-3" d="M941.14,239.54A43.18,43.18,0,0,1,943.6,281c-1.73,3.56-4,7-4.65,10.86a20.23,20.23,0,0,0,1.75,11c7.15,17,27.21,26.2,45.56,24.33s34.72-13,46.91-26.81" transform="translate(103.97 118.74)"/><path class="cls-3" d="M976.43,337.63a36,36,0,0,1-4.7,30.82c-5,7.13-12.77,13-13.78,21.65-.41,3.43.53,7.19,3.17,9.4,3.69,3.1,9.18,2.26,13.83,1a145.43,145.43,0,0,0,63.91-36.4" transform="translate(103.97 118.74)"/><path class="cls-3" d="M1039.72,385.3c-2.93,23-32.53,30.37-50.82,18.33" transform="translate(103.97 118.74)"/><path class="cls-3" d="M953.75,386.57c-22.37-.69-46.78-2.17-63.4-17.17,9.09-8.66,21.37-13,33.25-17L974.46,335" transform="translate(103.97 118.74)"/><path class="cls-3" d="M835.91,337.46a74,74,0,0,0,16,39.94c7.27,9,16.92,16.37,28,19.54s23.79,1.79,33.21-4.94c6.2-.23,8.66,13.11,13.55,16.92,16.56,12.88,40.93,14.72,59.24,4.49" transform="translate(103.97 118.74)"/><path class="cls-3" d="M877.89,280c4.28,10.77-2,22.75-9.08,31.91s-15.68,18.33-16.75,29.87l-5.43,1c-11-15.78-53.48-102-27.23-117.48" transform="translate(103.97 118.74)"/><path class="cls-3" d="M845.85,259.77c.31,5.45.86,11.44,4.78,15.24s10,4.19,15.39,3.2,10.49-3.13,15.92-3.58c8.61-.72,17,2.85,25.6,3.59s19.06-3.05,20.55-11.57" transform="translate(103.97 118.74)"/><path class="cls-3" d="M891.06,290.91a157.17,157.17,0,0,0,44.08,16.91l2.55-3.9" transform="translate(103.97 118.74)"/><path class="cls-3" d="M905.58,330.06l-29.64-10.78" transform="translate(103.97 118.74)"/><path class="cls-3" d="M860.51,330c4.6,15.76,19.53,27.94,35.89,29.29" transform="translate(103.97 118.74)"/><path class="cls-3" d="M1022.75,160.84c-21.68,7.31-45,8.5-66.81,15.48-16.91,5.41-32.58,14.22-47,24.59" transform="translate(103.97 118.74)"/><path class="cls-3" d="M1012.11,150.59a438.64,438.64,0,0,0-122.75,23.06" transform="translate(103.97 118.74)"/><path class="cls-3" d="M1042.67,180.37A111.74,111.74,0,0,1,978.27,252" transform="translate(103.97 118.74)"/><path class="cls-3" d="M1059.29,212.12a247.68,247.68,0,0,1-20.57,43c-5.54,9.2-13.31,19-24.05,19.27" transform="translate(103.97 118.74)"/><path class="cls-3" d="M1085.17,272.72c.27,9,.51,18.21-2.08,26.85s-8.56,16.77-17.14,19.57" transform="translate(103.97 118.74)"/><path class="cls-3" d="M962.84,368.1a33.81,33.81,0,0,0-26.08,2.12" transform="translate(103.97 118.74)"/><path class="cls-3" d="M870.64,49.61c17.64,6,29.07,22.53,43.08,34.8s31,20.46,48.47,26.82a10.3,10.3,0,0,1-7.7,3" transform="translate(103.97 118.74)"/><path class="cls-3" d="M835.77,62.14c4.9.57,9.42,2.86,13.75,5.22a282,282,0,0,1,69.25,53.22" transform="translate(103.97 118.74)"/><path class="cls-3" d="M847.92,150.25a272.75,272.75,0,0,0-113.79,12.58" transform="translate(103.97 118.74)"/><path class="cls-3" d="M802.32,188.33a642.64,642.64,0,0,0-123.77,25.29" transform="translate(103.97 118.74)"/><path class="cls-3" d="M611.05,193l26.89-9.95c9.2-3.4,18.46-6.83,26.8-12a74.11,74.11,0,0,0,27-29.53" transform="translate(103.97 118.74)"/><path class="cls-3" d="M1002.62,45.69c-3.47,7.81-3.08,16.73-2.33,25.24a379.45,379.45,0,0,0,11.45,64.77" transform="translate(103.97 118.74)"/><path class="cls-3" d="M1034.57,84.46a122.28,122.28,0,0,1-5.52,51.38" transform="translate(103.97 118.74)"/><path class="cls-3" d="M1079.94,180.63l47.3-31.37c2.92-1.94,6.37-4,9.72-2.95s4.37,6.94.94,7.65" transform="translate(103.97 118.74)"/><path class="cls-3" d="M1088.75,217.27c24.73-22.85,58.69-32.19,91.25-40.77" transform="translate(103.97 118.74)"/><path class="cls-3" d="M1108.19,289.92a118.65,118.65,0,0,1,30.28,69.3l-5.69-.21" transform="translate(103.97 118.74)"/><path class="cls-3" d="M1100.05,334.82c6.62,13,5.06,28.42,5,43a186.08,186.08,0,0,0,5.17,43.65" transform="translate(103.97 118.74)"/><path class="cls-3" d="M1001.89,453.19l-4,28.53c-.95,6.81-1.91,13.67-4.11,20.18-4.56,13.47-14.08,24.58-23.39,35.33-1,1.16-2.14,2.4-3.66,2.64s-3.31-1.22-2.74-2.65" transform="translate(103.97 118.74)"/><path class="cls-3" d="M920.89,466.7a123.41,123.41,0,0,0-19.57,34.57" transform="translate(103.97 118.74)"/><path class="cls-3" d="M771,339.68c-6.49,3.95-14.33,4.82-21.63,6.94s-14.88,6.32-17.16,13.57" transform="translate(103.97 118.74)"/><path class="cls-3" d="M822.7,394.86A160,160,0,0,1,781.16,456" transform="translate(103.97 118.74)"/><path class="cls-3" d="M866.09,405.74c-2.48,15.7-21.47,24.74-24,40.44" transform="translate(103.97 118.74)"/><path class="cls-3" d="M1225.27,83.45A210.24,210.24,0,0,0,1114,101.35" transform="translate(103.97 118.74)"/><path class="cls-3" d="M1290.75,98a41,41,0,0,1,20,72.47c-6.4,5.2-14.19,8.33-21.84,11.39" transform="translate(103.97 118.74)"/><path class="cls-3" d="M1276.29,92.06c-24.91-3.92-49.64,8.41-69.45,24-6.63,5.23-13,10.92-20.62,14.61-18.49,9-40.3,4.78-60.74,2.54s-44.15-1-57.2,14.94" transform="translate(103.97 118.74)"/><path class="cls-3" d="M1173.62-10.28l52-12.58c2.48-.61,5.07-1.21,7.56-.6,3.74.91,6.27,4.28,8.49,7.43l17.95,25.5L1258-.3a5.89,5.89,0,0,1,.08-3.12c.62-1.5,2.32-2.18,3.84-2.7,8.54-2.95,18.15-5.87,26.32-2,6.57,3.1,10.51,9.84,13.91,16.25,3.94,7.46,7.75,16.37,4.18,24-1.58,3.37-4.39,6-7,8.59a108.87,108.87,0,0,0-24.4,38" transform="translate(103.97 118.74)"/><path class="cls-3" d="M1286.66,185.13c.14,5.24-6.15,7.9-11.25,9.12l-27.86,6.66c-6.9,1.65-13.86,3.31-21,3.35a46.92,46.92,0,0,1-26.85-8.29" transform="translate(103.97 118.74)"/><path class="cls-3" d="M447.31,776.72c9.65,19.62,13.52,42.64,7.57,63.68S432.22,879.87,411,884.93c-20.13,4.8-43.15-1.91-60.8,8.9C382.45,904.28,398,940.7,425,961.3c30.51,23.28,76.81,22.94,107-.78,4-3.1,7.84-6.94,8.63-11.89s-1.6-9.57-2.3-14.41c-2.57-18.06,16.72-30.32,30.07-42.74,28.93-26.92,34.63-75.33,12.75-108.23-20.52-30.86-58.39-44.61-94.2-54.16" transform="translate(103.97 118.74)"/><path class="cls-3" d="M447.76,751.7C461.5,742.37,467,725.05,471.14,709c3.36-12.89,6.48-26.61,2.56-39.34A61.3,61.3,0,0,0,467,655.89a167.42,167.42,0,0,0-59.27-57.44" transform="translate(103.97 118.74)"/><path class="cls-3" d="M543.67,734.47l49.89-93.56c3.17-5.94,6.38-12,7.78-18.57,4.13-19.4-8.08-38.44-21.72-52.83a208.41,208.41,0,0,0-44.92-35.85c-5.33-3.16-11-6.14-17.16-6.68-4.93-.43-9.84.73-14.64,1.94a616,616,0,0,0-110.57,39.44" transform="translate(103.97 118.74)"/><path class="cls-3" d="M402.37,581.74c15.27,6.92,32.4,14,48.29,8.62,11-3.72,19.36-12.85,29.75-18.13,17.54-8.91,38.5-5.88,57.9-2.64" transform="translate(103.97 118.74)"/><path class="cls-3" d="M397.62,550c27.44-12.11,41.74-47.68,30.34-75.42l-13,1.73c11.05-16,14.62-41.13-1.16-52.44-10.5-7.53-24.88-5.51-37.48-2.61C337.53,430.17,299,445,269.84,472c-40.69,37.78-58,94.34-67.11,149.11" transform="translate(103.97 118.74)"/><path class="cls-3" d="M228.85,563c13.48-17.39,35.47-25.31,55.94-33.39s42-18.51,52-38.12c9.45-18.59,7.74-44,24.57-56.36" transform="translate(103.97 118.74)"/><path class="cls-3" d="M195.4,634.06c-22.35-29.34-25.79-68.43-28.4-105.21-1.16-16.29-2.25-33.08,2.94-48.56,3.3-9.85,9-18.7,15.08-27.13a321.4,321.4,0,0,1,62.89-65.49c4-3.1,8.1-6.16,12.89-7.71,10.34-3.37,22.2,1.21,29.3,9.46s9.94,19.48,9.95,30.36A68.67,68.67,0,0,1,294,448" transform="translate(103.97 118.74)"/><path class="cls-3" d="M175.91,446.9l-28.32-32c-4.08-4.61-8.25-9.29-13.54-12.42s-12-4.52-17.66-2.13c-4.74,2-8.26,6.4-13.16,8-3.55,1.16-7.44.69-11.08,1.53-4,.91-7.5,3.35-10.6,6C71.79,424.39,64.7,436.19,63,449s2.43,26.5,11.72,35.48" transform="translate(103.97 118.74)"/><path class="cls-3" d="M163.27,792.72c-18.6,44.11-64.2,70.47-109.23,86.72-22.23,8-45.64,14.45-69.22,12.76S-62.72,879.5-75,859.28c-3.71-6.13-6.32-13.24-5.58-20.37.5-4.93,2.57-9.6,3.12-14.52,1.59-14.14-9.18-26.41-13.21-40-4.46-15.05-.37-31.64,7.77-45.05s20-24.14,32.09-34.12c17.36-14.32,36.17-27.83,57.88-33.72,25.79-7,51.81,1.56,75.25,12.47,26.49,12.33,53,15.31,80,25.35" transform="translate(103.97 118.74)"/><path class="cls-3" d="M-76.69,768.27c-2.61-2.65-1.12-7.08.68-10.32A101,101,0,0,1-5,708c5.06-.83,10.19-1.26,15.16-2.51,12.12-3.06,23-10.88,35.45-11.72,7.67-.51,16.39,1.42,22.33-3.48" transform="translate(103.97 118.74)"/><path class="cls-3" d="M26.27,905.77C31.46,927,13.17,949,19.28,970c7.13,24.51,40.52,29.12,57.23,48.41,8.17,9.43,11.82,21.84,17.72,32.84s15.85,21.54,28.32,21.58c14.45,0,24.77-13.49,32.49-25.7,17.88-28.25,35.16-57.26,45.74-89s14.1-66.66,4.19-98.6" transform="translate(103.97 118.74)"/><path class="cls-3" d="M206.79,987.83a478.93,478.93,0,0,0,52.73,69.91c7.08,7.78,14.58,15.46,23.91,20.3,14.55,7.53,32.65,7.72,45.48,17.9,4.31,3.42,8.38,8.09,13.88,8.3,7.1.26,11.82-6.86,17.2-11.5,14.2-12.26,38.05-9,50.59-23,5-5.52,7.26-12.88,9.41-20,6.88-22.74,13.82-46.77,8.45-69.91-7.28-31.34-35.1-53.17-62.18-70.54-10.41-6.68-21.25-13.2-33.34-15.78" transform="translate(103.97 118.74)"/><path class="cls-3" d="M301.38,1071.27a103,103,0,0,1-21.95-39.8c-4.21-14.59-5.14-29.9-8-44.83s-7.91-30.09-18.71-40.77c-6.71-6.63-15.22-11.13-22.6-17s-13.95-14-14.23-23.44" transform="translate(103.97 118.74)"/><path class="cls-3" d="M159.24,716.11c-17.46,38.75-3.86,86.14,23.84,118.36s67.09,51.9,106.57,67.63c13,5.18,28.78,9.73,40.08,1.47a71.81,71.81,0,0,0-19.21-38.93c-14.34-15.16-16.08-11.95-16.71-33.09-.87-29.31-14.05-58.18-36.52-77.23a57.1,57.1,0,0,0-14.4-9.33c-11.08-4.71-23.56-4.12-35.53-5.37s-25-5.29-31-15.67" transform="translate(103.97 118.74)"/><path class="cls-3" d="M168.94,711.9c-1.64-9.93,4.44-19.32,10.23-27.55,24.53-34.88,50.77-71.23,89.29-89.52,22.68-10.77,48-14.41,72.85-17.76,5.16-.69,10.6-1.35,15.43.61s8.61,7.51,6.74,12.37c-1.8,4.68-7.49,6.37-11,9.94-5.73,5.82-4.76,15.47-8.63,22.67-7.36,13.69-26.84,12.55-42.35,11.66a166.73,166.73,0,0,0-83.66,17.27" transform="translate(103.97 118.74)"/><path class="cls-3" d="M279.87,766.17a43.2,43.2,0,0,1,35.36-21.76c4-.15,8,.23,11.77-1a20.18,20.18,0,0,0,8.91-6.77c11.61-14.33,10.23-36.36-.08-51.65S308,660.5,290,656.29" transform="translate(103.97 118.74)"/><path class="cls-3" d="M349.63,688.71A36,36,0,0,1,379,678.29c8.62,1,17.52,5.09,25.59,1.91,3.21-1.26,6.09-3.86,6.79-7.24,1-4.71-2.35-9.15-5.65-12.66a145.26,145.26,0,0,0-62.28-39.12" transform="translate(103.97 118.74)"/><path class="cls-3" d="M361.73,610.41c21.68-8.3,42.14,14.31,40.18,36.12" transform="translate(103.97 118.74)"/><path class="cls-3" d="M403.48,685.57c10,20,20.2,42.26,14.83,64-11.93-3.91-21.52-12.7-30.71-21.25l-39.34-36.61" transform="translate(103.97 118.74)"/><path class="cls-3" d="M415.9,812.63a74,74,0,0,0,27.62-33c4.5-10.67,6.43-22.65,4-34s-9.66-21.81-20.05-26.93c-3.13-5.35,7.47-13.82,8.51-19.94,3.52-20.68-6.37-43-24.05-54.32" transform="translate(103.97 118.74)"/><path class="cls-3" d="M345.43,802.78c7.47-8.86,21-9,32.42-7.08s23.56,5.16,34.24.65l3.47,4.3c-8.73,17.14-64.6,95.32-90.68,79.52" transform="translate(103.97 118.74)"/><path class="cls-3" d="M342.73,840.59c4.65-2.85,9.67-6.17,11.18-11.42s-1.05-10.82-4.46-15.07-7.71-7.77-10.68-12.34c-4.7-7.25-5.52-16.32-8.94-24.26s-11.69-15.35-19.9-12.64" transform="translate(103.97 118.74)"/><path class="cls-3" d="M348.8,786a157,157,0,0,0-5.92-46.83l-4.65-.41" transform="translate(103.97 118.74)"/><path class="cls-3" d="M376.44,754.73,381,785.94" transform="translate(103.97 118.74)"/><path class="cls-3" d="M397.71,794.47c11.72-11.5,15.4-30.42,8.85-45.47" transform="translate(103.97 118.74)"/><path class="cls-3" d="M171.94,731.45c16.69,15.64,28.77,35.65,45.22,51.56,12.76,12.34,27.93,22,43.88,29.78" transform="translate(103.97 118.74)"/><path class="cls-3" d="M167.94,745.66A438.53,438.53,0,0,0,246.27,843" transform="translate(103.97 118.74)"/><path class="cls-3" d="M179.74,704.66a111.76,111.76,0,0,1,93.6,22.88" transform="translate(103.97 118.74)"/><path class="cls-3" d="M199.87,675a247.24,247.24,0,0,1,47.64-2.21c10.72.53,23,2.76,28.35,12.08" transform="translate(103.97 118.74)"/><path class="cls-3" d="M241,623.56c7.82-4.49,15.81-9.06,24.64-10.85s18.83-.39,25.35,5.85" transform="translate(103.97 118.74)"/><path class="cls-3" d="M382.91,686.29a33.82,33.82,0,0,0,14.2,22" transform="translate(103.97 118.74)"/><path class="cls-3" d="M145.8,918.06c-3.07-18.37,6.13-36.26,10.32-54.41s3.36-37,.72-55.39a10.29,10.29,0,0,1,6.28,5.38" transform="translate(103.97 118.74)"/><path class="cls-3" d="M173.33,942.87c-1.82-4.59-1.94-9.65-1.9-14.59A282,282,0,0,1,185.6,842.1" transform="translate(103.97 118.74)"/><path class="cls-3" d="M245.23,890.52a272.86,272.86,0,0,0,64.87,94.34" transform="translate(103.97 118.74)"/><path class="cls-3" d="M300.34,912.72a644,644,0,0,0,80.78,97.11" transform="translate(103.97 118.74)"/><path class="cls-3" d="M394.89,1079l-21.47-19c-7.35-6.5-14.76-13-23.24-18a74,74,0,0,0-38.8-9.87" transform="translate(103.97 118.74)"/><path class="cls-3" d="M80,803.61c8.52-.63,16.19-5.2,23.34-9.88A379.3,379.3,0,0,0,155,753" transform="translate(103.97 118.74)"/><path class="cls-3" d="M99.05,757.12a122.25,122.25,0,0,1,47.88-19.41" transform="translate(103.97 118.74)"/><path class="cls-3" d="M162.36,671.69l-50-26.85c-3.08-1.66-6.5-3.74-7.19-7.18s4-7.13,6.3-4.44" transform="translate(103.97 118.74)"/><path class="cls-3" d="M190.48,646.61c-31.82-11-56.1-36.51-79.06-61.15" transform="translate(103.97 118.74)"/><path class="cls-3" d="M245.32,595.14a118.57,118.57,0,0,1,46.76-59.43l2.51,5.11" transform="translate(103.97 118.74)"/><path class="cls-3" d="M288.74,581.1c8.33-12,22.65-17.89,35.51-24.78a185.57,185.57,0,0,0,36-25.18" transform="translate(103.97 118.74)"/><path class="cls-3" d="M439.44,611.66l27-10c6.45-2.38,12.95-4.77,19.73-5.91,14-2.35,28.31.79,42.18,3.91,1.5.34,3.13.76,4.06,2s.49,3.48-1,3.66" transform="translate(103.97 118.74)"/><path class="cls-3" d="M489.63,676.66a123.08,123.08,0,0,0,39.71.91" transform="translate(103.97 118.74)"/><path class="cls-3" d="M448.55,868.83c6.55,3.85,11,10.34,16.34,15.77s12.6,10.14,20.06,8.72" transform="translate(103.97 118.74)"/><path class="cls-3" d="M472.72,797.14a160.07,160.07,0,0,1,73.48,7.74" transform="translate(103.97 118.74)"/><path class="cls-3" d="M461.8,753.77c15-5.24,32,7.22,47,2" transform="translate(103.97 118.74)"/><path class="cls-3" d="M8,589.54a210.13,210.13,0,0,0,68.38,89.62" transform="translate(103.97 118.74)"/><path class="cls-3" d="M-10.11,525A42,42,0,0,1,.13,481.23a42.05,42.05,0,0,1,44.18-8.14c7.6,3.19,14,8.57,20.35,13.87" transform="translate(103.97 118.74)"/><path class="cls-3" d="M-8.49,540.51c8.31,23.81,30.86,39.78,54,49.85,7.74,3.38,15.77,6.33,22.62,11.27,16.68,12,23.26,33.26,31,52.34s20,39.36,40.19,43.34" transform="translate(103.97 118.74)"/><path class="cls-3" d="M-50.16,679.35l-35.65-39.83c-1.7-1.91-3.46-3.91-4.1-6.38-1-3.73.81-7.56,2.54-11l14-27.87-7.87,6a5.74,5.74,0,0,1-2.79,1.4c-1.61.17-3-1-4.2-2.1-6.63-6.14-13.74-13.23-14.2-22.25-.38-7.25,3.7-13.91,7.75-19.94,4.71-7,10.76-14.56,19.18-15,3.71-.2,7.32,1,10.88,2.11a108.63,108.63,0,0,0,45,3.56" transform="translate(103.97 118.74)"/><path class="cls-3" d="M68.63,487.39c4.55-2.6,9.86,1.68,13.35,5.6q9.51,10.71,19,21.41c4.71,5.3,9.46,10.65,12.85,16.88a46.93,46.93,0,0,1,5.38,27.57" transform="translate(103.97 118.74)"/><path class="cls-3" d="M389.29,1825.89c21.85.76,44,8.23,59.7,23.42s24.07,38.62,18.48,59.76c-5.29,20-22.08,37.12-20.89,57.78,24.48-23.52,63.9-20,94.81-34,34.93-15.88,56.52-56.84,49.86-94.64-.87-4.94-2.4-10.18-6.4-13.22s-9.18-3.11-13.78-4.79c-17.13-6.26-18.82-29.06-23.45-46.7-10-38.21-50-66.12-89.36-62.38-36.89,3.5-66.91,30.38-92.25,57.42" transform="translate(103.97 118.74)"/><path class="cls-3" d="M367.45,1813.66c-1.73-16.51-14.41-29.5-26.59-40.79-9.78-9-20.39-18.29-33.47-20.85a60.88,60.88,0,0,0-15.26-.62,167.3,167.3,0,0,0-78.63,25.09" transform="translate(103.97 118.74)"/><path class="cls-3" d="M397.6,1721l-58.87-88.18c-3.74-5.6-7.55-11.28-12.69-15.63-15.15-12.8-37.7-11-56.83-5.82A208.36,208.36,0,0,0,216.39,1634c-5.3,3.2-10.61,6.79-14,12-2.71,4.14-4,9-5.21,13.81a616.1,616.1,0,0,0-17.5,116.08" transform="translate(103.97 118.74)"/><path class="cls-3" d="M196.22,1773.34c13.32-10.19,27.63-21.95,30.42-38.48,1.94-11.49-2.17-23.14-1.92-34.79.44-19.66,13-36.71,25-52.28" transform="translate(103.97 118.74)"/><path class="cls-3" d="M166,1762.52c2.3-29.9-22.28-59.32-52.12-62.38l-4.64,12.3c-8.84-17.29-29.33-32.33-46.76-23.77-11.6,5.71-16.61,19.33-20,31.81-10.45,38.37-15.63,79.33-5.55,117.81C51,1892,92.66,1934,136.6,1967.9" transform="translate(103.97 118.74)"/><path class="cls-3" d="M97.72,1917.41c-9-20.1-5.55-43.22-3-65.07s3.56-45.81-9-63.87c-11.92-17.11-35.15-27.63-38.06-48.28" transform="translate(103.97 118.74)"/><path class="cls-3" d="M144.51,1980.47c-36.41,5.82-72.49-9.61-106.13-24.7-14.91-6.68-30.22-13.65-41.41-25.54-7.12-7.57-12.22-16.78-16.79-26.11a321.22,321.22,0,0,1-28-86.38c-.86-5-1.6-10-.71-15,1.92-10.71,11.56-19,22.18-21.35s21.87.45,31.46,5.58a68.61,68.61,0,0,1,22,18.64" transform="translate(103.97 118.74)"/><path class="cls-3" d="M-29.64,1909.19-71.21,1919c-6,1.42-12.08,2.88-17.34,6.07s-9.65,8.43-10.22,14.55c-.47,5.13,1.74,10.3.82,15.37-.67,3.68-2.92,6.88-3.9,10.49-1.08,4-.59,8.19.32,12.2,2.84,12.6,9.9,24.42,20.4,31.94s24.51,10.38,36.81,6.44" transform="translate(103.97 118.74)"/><path class="cls-3" d="M269.15,2083.76C299.24,2121,300.92,2173.64,294,2221c-3.44,23.39-8.84,47-21.48,67s-33.65,35.88-57.26,37.12c-7.16.38-14.66-.69-20.6-4.7-4.1-2.78-7.24-6.81-11.31-9.62-11.71-8.08-27.62-4.39-41.55-7.28-15.36-3.19-28-14.63-36-28.14s-11.82-29-14.9-44.41c-4.42-22.07-7.43-45-2.37-66.94,6-26,25.87-44.92,46.56-60.43,23.38-17.51,38.54-39.48,60.14-58.49" transform="translate(103.97 118.74)"/><path class="cls-3" d="M134.2,2283.68c-3.56,1-6.77-2.36-8.78-5.48A101,101,0,0,1,115,2192.06c1.67-4.85,3.71-9.58,5-14.55,3-12.12,1.27-25.39,6.43-36.77,3.17-7,9-13.78,7.48-21.33" transform="translate(103.97 118.74)"/><path class="cls-3" d="M304,2257.92c21.15,5.46,31.94,32,53.31,36.53,25,5.29,44.8-21.95,69.7-27.57,12.18-2.74,24.84-.09,37.31-.09s26.48-3.79,32.41-14.76c6.87-12.72-.18-28.2-7.29-40.78-16.45-29.11-33.85-58.05-56.8-82.36s-52.09-43.93-84.91-50.29" transform="translate(103.97 118.74)"/><path class="cls-3" d="M461.66,2137.62a479.45,479.45,0,0,0,86.54-13.43c10.19-2.56,20.51-5.55,29.18-11.48,13.52-9.26,22.24-25.12,37.28-31.62,5.05-2.18,11.09-3.56,13.86-8.31,3.59-6.13-.45-13.66-2-20.59-4.09-18.31,10-37.8,3.65-55.45-2.52-7-7.92-12.48-13.16-17.73-16.79-16.82-34.68-34.29-57.62-40.49-31.06-8.39-63.44,5.8-91.55,21.46-10.8,6-21.67,12.48-29.66,21.92" transform="translate(103.97 118.74)"/><path class="cls-3" d="M579.91,2093.69a103,103,0,0,1-45.45.54c-14.85-3.18-28.79-9.61-43.27-14.18s-30.26-7.25-44.77-2.77c-9,2.77-17,8.15-25.68,11.87s-18.94,5.67-27.39,1.46" transform="translate(103.97 118.74)"/><path class="cls-3" d="M199.74,2051.11c25.88,33.7,74.08,44.11,115.57,34.93s77.45-34.6,110-62c10.7-9,22.17-20.77,20.23-34.62a71.75,71.75,0,0,0-43.39-1.48c-20.13,5.48-18.12,8.53-37.05-.91-26.25-13.08-57.92-15.11-85.32-4.31a56.94,56.94,0,0,0-15,8.28c-9.39,7.53-14.77,18.82-21.53,28.77s-16.45,19.49-28.48,20" transform="translate(103.97 118.74)"/><path class="cls-3" d="M200.61,2040.57c-9.53-3.25-14.93-13-19.45-22-19.15-38.11-38.78-78.41-36.69-121,1.23-25.07,10-49.09,18.78-72.6,1.83-4.87,3.82-10,7.83-13.3s10.69-4,14.09-.1,2.06,9.61,3.55,14.4c2.43,7.8,11.38,11.51,15.9,18.32,8.58,13-1.62,29.58-9.74,42.84A166.7,166.7,0,0,0,170.56,1969" transform="translate(103.97 118.74)"/><path class="cls-3" d="M300.86,1968.46A43.18,43.18,0,0,1,298.4,1927c1.73-3.56,4-7,4.65-10.86a20.23,20.23,0,0,0-1.75-11.05c-7.15-17-27.21-26.2-45.56-24.33s-34.72,13-46.91,26.81" transform="translate(103.97 118.74)"/><path class="cls-3" d="M265.57,1870.37a36,36,0,0,1,4.7-30.82c5-7.13,12.77-13,13.78-21.65.41-3.43-.53-7.19-3.17-9.4-3.69-3.1-9.18-2.26-13.83-1a145.43,145.43,0,0,0-63.91,36.4" transform="translate(103.97 118.74)"/><path class="cls-3" d="M202.28,1822.7c2.93-23,32.53-30.37,50.82-18.33" transform="translate(103.97 118.74)"/><path class="cls-3" d="M288.25,1821.43c22.37.69,46.78,2.17,63.4,17.17-9.09,8.66-21.37,13-33.25,17L267.54,1873" transform="translate(103.97 118.74)"/><path class="cls-3" d="M406.09,1870.54a74,74,0,0,0-16-39.94c-7.27-9-16.92-16.37-28.05-19.54s-23.79-1.79-33.21,4.94c-6.2.23-8.66-13.11-13.55-16.92-16.56-12.88-40.93-14.72-59.24-4.49" transform="translate(103.97 118.74)"/><path class="cls-3" d="M364.11,1928c-4.28-10.77,2-22.75,9.08-31.91s15.68-18.33,16.75-29.87l5.43-1c11,15.78,53.48,102,27.23,117.48" transform="translate(103.97 118.74)"/><path class="cls-3" d="M396.15,1948.23c-.31-5.45-.86-11.44-4.78-15.24s-10-4.19-15.39-3.2-10.49,3.13-15.92,3.58c-8.61.72-17-2.85-25.6-3.59s-19.06,3-20.55,11.57" transform="translate(103.97 118.74)"/><path class="cls-3" d="M350.94,1917.09a157.17,157.17,0,0,0-44.08-16.91l-2.55,3.9" transform="translate(103.97 118.74)"/><path class="cls-3" d="M336.42,1877.94l29.64,10.78" transform="translate(103.97 118.74)"/><path class="cls-3" d="M381.49,1878c-4.6-15.76-19.53-27.94-35.89-29.29" transform="translate(103.97 118.74)"/><path class="cls-3" d="M219.25,2047.16c21.68-7.31,45-8.5,66.81-15.48,16.91-5.41,32.58-14.22,47-24.59" transform="translate(103.97 118.74)"/><path class="cls-3" d="M229.89,2057.41a438.64,438.64,0,0,0,122.75-23.06" transform="translate(103.97 118.74)"/><path class="cls-3" d="M199.33,2027.63a111.74,111.74,0,0,1,64.4-71.67" transform="translate(103.97 118.74)"/><path class="cls-3" d="M182.71,1995.88a247.68,247.68,0,0,1,20.57-43c5.54-9.2,13.31-19,24.05-19.27" transform="translate(103.97 118.74)"/><path class="cls-3" d="M156.83,1935.28c-.27-9-.51-18.21,2.08-26.85s8.56-16.77,17.14-19.57" transform="translate(103.97 118.74)"/><path class="cls-3" d="M279.16,1839.9a33.81,33.81,0,0,0,26.08-2.12" transform="translate(103.97 118.74)"/><path class="cls-3" d="M371.36,2158.39c-17.64-6-29.07-22.53-43.08-34.8s-31-20.46-48.47-26.82a10.3,10.3,0,0,1,7.7-3" transform="translate(103.97 118.74)"/><path class="cls-3" d="M406.23,2145.86c-4.9-.57-9.42-2.86-13.75-5.22a282,282,0,0,1-69.25-53.22" transform="translate(103.97 118.74)"/><path class="cls-3" d="M394.08,2057.75a272.75,272.75,0,0,0,113.79-12.58" transform="translate(103.97 118.74)"/><path class="cls-3" d="M439.68,2019.67a642.64,642.64,0,0,0,123.77-25.29" transform="translate(103.97 118.74)"/><path class="cls-3" d="M631,2015l-26.89,10c-9.2,3.4-18.46,6.83-26.8,12a74.11,74.11,0,0,0-27,29.53" transform="translate(103.97 118.74)"/><path class="cls-3" d="M239.38,2162.31c3.47-7.81,3.08-16.73,2.33-25.24a379.45,379.45,0,0,0-11.45-64.77" transform="translate(103.97 118.74)"/><path class="cls-3" d="M207.43,2123.54a122.28,122.28,0,0,1,5.52-51.38" transform="translate(103.97 118.74)"/><path class="cls-3" d="M162.06,2027.37l-47.3,31.37c-2.92,1.94-6.37,4-9.72,3s-4.37-6.94-.94-7.65" transform="translate(103.97 118.74)"/><path class="cls-3" d="M153.25,1990.73c-24.73,22.85-58.69,32.19-91.25,40.77" transform="translate(103.97 118.74)"/><path class="cls-3" d="M133.81,1918.08a118.65,118.65,0,0,1-30.28-69.3l5.69.21" transform="translate(103.97 118.74)"/><path class="cls-3" d="M142,1873.18c-6.62-13-5.06-28.42-5-43a186.08,186.08,0,0,0-5.17-43.65" transform="translate(103.97 118.74)"/><path class="cls-3" d="M240.11,1754.81l4-28.53c1-6.81,1.91-13.67,4.11-20.18,4.56-13.47,14.08-24.58,23.39-35.33,1-1.16,2.14-2.4,3.66-2.64s3.31,1.22,2.74,2.65" transform="translate(103.97 118.74)"/><path class="cls-3" d="M321.11,1741.3a123.41,123.41,0,0,0,19.57-34.57" transform="translate(103.97 118.74)"/><path class="cls-3" d="M471.05,1868.32c6.49-4,14.33-4.82,21.63-6.94s14.88-6.32,17.16-13.57" transform="translate(103.97 118.74)"/><path class="cls-3" d="M419.3,1813.14a160,160,0,0,1,41.54-61.09" transform="translate(103.97 118.74)"/><path class="cls-3" d="M375.91,1802.26c2.48-15.7,21.47-24.74,24-40.44" transform="translate(103.97 118.74)"/><path class="cls-3" d="M16.73,2124.55A210.24,210.24,0,0,0,128,2106.65" transform="translate(103.97 118.74)"/><path class="cls-3" d="M-48.75,2110a42,42,0,0,1-33.7-29.7,42,42,0,0,1,13.7-42.77c6.4-5.2,14.19-8.33,21.84-11.39" transform="translate(103.97 118.74)"/><path class="cls-3" d="M-34.29,2115.94c24.91,3.92,49.64-8.41,69.45-24,6.63-5.23,13-10.92,20.62-14.61,18.49-9,40.3-4.78,60.74-2.54s44.15,1,57.2-14.94" transform="translate(103.97 118.74)"/><path class="cls-3" d="M68.38,2218.28l-52,12.58c-2.48.61-5.07,1.21-7.56.6-3.74-.91-6.27-4.28-8.49-7.43l-17.95-25.5,1.57,9.77a5.89,5.89,0,0,1-.08,3.12c-.62,1.5-2.32,2.18-3.84,2.7-8.54,3-18.15,5.87-26.32,2-6.57-3.1-10.51-9.84-13.91-16.25-3.94-7.46-7.75-16.37-4.18-24,1.58-3.37,4.39-6,7-8.59a108.87,108.87,0,0,0,24.4-38" transform="translate(103.97 118.74)"/><path class="cls-3" d="M-44.66,2022.87c-.14-5.24,6.15-7.9,11.25-9.12l27.86-6.66c6.9-1.65,13.86-3.31,21-3.35A46.92,46.92,0,0,1,42.25,2012" transform="translate(103.97 118.74)"/><path class="cls-3" d="M794.69,1431.28c-9.65-19.62-13.52-42.64-7.57-63.68s22.66-39.47,43.93-44.53c20.13-4.8,43.15,1.91,60.8-8.9-32.3-10.45-47.81-46.87-74.8-67.47-30.51-23.28-76.81-22.94-107,.78-4,3.1-7.84,6.94-8.63,11.89s1.6,9.57,2.3,14.41c2.57,18.06-16.72,30.32-30.07,42.74-28.93,26.92-34.63,75.33-12.75,108.23,20.52,30.86,58.39,44.61,94.2,54.16" transform="translate(103.97 118.74)"/><path class="cls-3" d="M794.24,1456.3c-13.74,9.33-19.19,26.65-23.38,42.72-3.36,12.89-6.48,26.61-2.56,39.34a61.3,61.3,0,0,0,6.67,13.75,167.42,167.42,0,0,0,59.27,57.44" transform="translate(103.97 118.74)"/><path class="cls-3" d="M698.33,1473.53l-49.89,93.56c-3.17,5.94-6.38,12-7.78,18.57-4.13,19.4,8.08,38.44,21.72,52.83a208.41,208.41,0,0,0,44.92,35.85c5.33,3.16,11,6.14,17.16,6.68,4.93.43,9.84-.73,14.64-1.94a616,616,0,0,0,110.57-39.44" transform="translate(103.97 118.74)"/><path class="cls-3" d="M839.63,1626.26c-15.27-6.92-32.4-14-48.29-8.62-11,3.72-19.36,12.85-29.75,18.13-17.54,8.91-38.5,5.88-57.9,2.64" transform="translate(103.97 118.74)"/><path class="cls-3" d="M844.38,1658c-27.44,12.11-41.74,47.68-30.34,75.42l13-1.73c-11.05,16-14.62,41.13,1.16,52.44,10.5,7.53,24.88,5.51,37.48,2.61,38.76-8.92,77.3-23.73,106.45-50.79,40.69-37.78,58-94.34,67.11-149.11" transform="translate(103.97 118.74)"/><path class="cls-3" d="M1013.15,1645c-13.48,17.39-35.47,25.31-55.94,33.39s-42.05,18.51-52,38.12c-9.45,18.59-7.74,44-24.57,56.36" transform="translate(103.97 118.74)"/><path class="cls-3" d="M1046.6,1573.94c22.35,29.34,25.79,68.43,28.4,105.21,1.16,16.29,2.25,33.08-2.94,48.56-3.3,9.85-9,18.7-15.08,27.13a321.4,321.4,0,0,1-62.89,65.49c-4,3.1-8.1,6.16-12.89,7.71-10.34,3.37-22.2-1.21-29.3-9.46S942,1799.1,942,1788.22a68.67,68.67,0,0,1,6-28.18" transform="translate(103.97 118.74)"/><path class="cls-3" d="M1066.09,1761.1l28.32,32c4.08,4.61,8.25,9.29,13.54,12.42s12,4.52,17.66,2.13c4.74-2,8.26-6.4,13.16-8,3.55-1.16,7.44-.69,11.08-1.53,4-.91,7.5-3.35,10.6-6,9.76-8.47,16.85-20.27,18.51-33.08s-2.43-26.5-11.72-35.48" transform="translate(103.97 118.74)"/><path class="cls-3" d="M1078.73,1415.28c18.6-44.11,64.2-70.47,109.23-86.72,22.23-8,45.64-14.45,69.22-12.76s47.54,12.7,59.79,32.92c3.71,6.13,6.32,13.24,5.58,20.37-.5,4.93-2.57,9.6-3.12,14.52-1.59,14.14,9.18,26.41,13.21,40.05,4.46,15,.37,31.64-7.77,45s-20,24.14-32.09,34.12c-17.36,14.32-36.17,27.83-57.88,33.72-25.79,7-51.81-1.56-75.25-12.47-26.49-12.33-53-15.31-80-25.35" transform="translate(103.97 118.74)"/><path class="cls-3" d="M1318.69,1439.73c2.61,2.65,1.12,7.08-.68,10.32a101,101,0,0,1-71,49.91c-5.06.83-10.19,1.26-15.16,2.51-12.12,3.06-23,10.88-35.45,11.72-7.67.51-16.39-1.42-22.33,3.48" transform="translate(103.97 118.74)"/><path class="cls-3" d="M1215.73,1302.23c-5.19-21.21,13.1-43.27,7-64.23-7.13-24.51-40.52-29.12-57.23-48.41-8.17-9.43-11.82-21.84-17.72-32.84s-15.85-21.54-28.32-21.58c-14.45,0-24.77,13.49-32.49,25.7-17.88,28.25-35.16,57.26-45.74,89s-14.1,66.66-4.19,98.6" transform="translate(103.97 118.74)"/><path class="cls-3" d="M1035.21,1220.17a478.93,478.93,0,0,0-52.73-69.91c-7.08-7.78-14.58-15.46-23.91-20.3-14.55-7.53-32.65-7.72-45.48-17.9-4.31-3.42-8.38-8.09-13.88-8.3-7.1-.26-11.82,6.86-17.2,11.5-14.2,12.26-38,9-50.59,23-5,5.52-7.26,12.88-9.41,20-6.88,22.74-13.82,46.77-8.45,69.91,7.28,31.34,35.1,53.17,62.18,70.54,10.41,6.68,21.25,13.2,33.34,15.78" transform="translate(103.97 118.74)"/><path class="cls-3" d="M940.62,1136.73a103,103,0,0,1,22,39.8c4.21,14.59,5.14,29.9,8,44.83s7.91,30.09,18.71,40.77c6.71,6.63,15.22,11.13,22.6,17s13.95,14,14.23,23.44" transform="translate(103.97 118.74)"/><path class="cls-3" d="M1082.76,1491.89c17.46-38.75,3.86-86.14-23.84-118.36s-67.09-51.9-106.57-67.63c-13-5.18-28.78-9.73-40.08-1.47a71.81,71.81,0,0,0,19.21,38.93c14.34,15.16,16.08,12,16.71,33.09.87,29.31,14,58.18,36.52,77.23a57.1,57.1,0,0,0,14.4,9.33c11.08,4.71,23.56,4.12,35.53,5.37s24.95,5.29,31,15.67" transform="translate(103.97 118.74)"/><path class="cls-3" d="M1073.06,1496.1c1.64,9.93-4.44,19.32-10.23,27.55-24.53,34.88-50.77,71.23-89.29,89.52-22.68,10.77-48,14.41-72.85,17.76-5.16.69-10.6,1.35-15.43-.61s-8.61-7.51-6.74-12.37c1.8-4.68,7.49-6.37,11-9.94,5.73-5.82,4.76-15.47,8.63-22.67,7.36-13.69,26.84-12.55,42.35-11.66a166.73,166.73,0,0,0,83.66-17.27" transform="translate(103.97 118.74)"/><path class="cls-3" d="M962.13,1441.83a43.2,43.2,0,0,1-35.36,21.76c-4,.15-8-.23-11.77,1a20.18,20.18,0,0,0-8.91,6.77c-11.61,14.33-10.23,36.36.08,51.65S934,1547.5,952,1551.71" transform="translate(103.97 118.74)"/><path class="cls-3" d="M892.37,1519.29A36,36,0,0,1,863,1529.71c-8.62-1-17.52-5.09-25.59-1.91-3.21,1.26-6.09,3.86-6.79,7.24-1,4.71,2.35,9.15,5.65,12.66a145.26,145.26,0,0,0,62.28,39.12" transform="translate(103.97 118.74)"/><path class="cls-3" d="M880.27,1597.59c-21.68,8.3-42.14-14.31-40.18-36.12" transform="translate(103.97 118.74)"/><path class="cls-3" d="M838.52,1522.43c-10-20-20.2-42.26-14.83-64,11.93,3.91,21.52,12.7,30.71,21.25l39.34,36.61" transform="translate(103.97 118.74)"/><path class="cls-3" d="M826.1,1395.37a74,74,0,0,0-27.62,33c-4.5,10.67-6.43,22.65-4,34s9.66,21.81,20.05,26.93c3.13,5.35-7.47,13.82-8.51,19.94-3.52,20.68,6.37,43,24.05,54.32" transform="translate(103.97 118.74)"/><path class="cls-3" d="M896.57,1405.22c-7.47,8.86-21,9-32.42,7.08s-23.56-5.16-34.24-.65l-3.47-4.3c8.73-17.14,64.6-95.32,90.68-79.52" transform="translate(103.97 118.74)"/><path class="cls-3" d="M899.27,1367.41c-4.65,2.85-9.67,6.17-11.18,11.42s1,10.82,4.46,15.07,7.71,7.77,10.68,12.34c4.7,7.25,5.52,16.32,8.94,24.26s11.69,15.35,19.9,12.64" transform="translate(103.97 118.74)"/><path class="cls-3" d="M893.2,1422a157,157,0,0,0,5.92,46.83l4.65.41" transform="translate(103.97 118.74)"/><path class="cls-3" d="M865.56,1453.27l-4.51-31.21" transform="translate(103.97 118.74)"/><path class="cls-3" d="M844.29,1413.53c-11.72,11.5-15.4,30.42-8.85,45.47" transform="translate(103.97 118.74)"/><path class="cls-3" d="M1070.06,1476.55c-16.69-15.64-28.77-35.65-45.22-51.56-12.76-12.34-27.93-22-43.88-29.78" transform="translate(103.97 118.74)"/><path class="cls-3" d="M1074.06,1462.34a438.53,438.53,0,0,0-78.33-97.29" transform="translate(103.97 118.74)"/><path class="cls-3" d="M1062.26,1503.34a111.76,111.76,0,0,1-93.6-22.88" transform="translate(103.97 118.74)"/><path class="cls-3" d="M1042.13,1533a247.24,247.24,0,0,1-47.64,2.21c-10.72-.53-23-2.76-28.35-12.08" transform="translate(103.97 118.74)"/><path class="cls-3" d="M1001,1584.44c-7.82,4.49-15.81,9.06-24.64,10.85s-18.83.39-25.35-5.85" transform="translate(103.97 118.74)"/><path class="cls-3" d="M859.09,1521.71a33.82,33.82,0,0,0-14.2-22" transform="translate(103.97 118.74)"/><path class="cls-3" d="M1096.2,1289.94c3.07,18.37-6.13,36.26-10.32,54.41s-3.36,37-.72,55.39a10.29,10.29,0,0,1-6.28-5.38" transform="translate(103.97 118.74)"/><path class="cls-3" d="M1068.67,1265.13c1.82,4.59,1.94,9.65,1.9,14.59a282,282,0,0,1-14.17,86.18" transform="translate(103.97 118.74)"/><path class="cls-3" d="M996.77,1317.48a272.86,272.86,0,0,0-64.87-94.34" transform="translate(103.97 118.74)"/><path class="cls-3" d="M941.66,1295.28a644,644,0,0,0-80.78-97.11" transform="translate(103.97 118.74)"/><path class="cls-3" d="M847.11,1129l21.47,19c7.35,6.5,14.76,13,23.24,18a74,74,0,0,0,38.8,9.87" transform="translate(103.97 118.74)"/><path class="cls-3" d="M1162,1404.39c-8.52.63-16.19,5.2-23.34,9.88A379.3,379.3,0,0,0,1087,1455" transform="translate(103.97 118.74)"/><path class="cls-3" d="M1143,1450.88a122.25,122.25,0,0,1-47.88,19.41" transform="translate(103.97 118.74)"/><path class="cls-3" d="M1079.64,1536.31l50,26.85c3.08,1.66,6.5,3.74,7.19,7.18s-4,7.13-6.3,4.44" transform="translate(103.97 118.74)"/><path class="cls-3" d="M1051.52,1561.39c31.82,11,56.1,36.51,79.06,61.15" transform="translate(103.97 118.74)"/><path class="cls-3" d="M996.68,1612.86a118.57,118.57,0,0,1-46.76,59.43l-2.51-5.11" transform="translate(103.97 118.74)"/><path class="cls-3" d="M953.26,1626.9c-8.33,12-22.65,17.89-35.51,24.78a185.57,185.57,0,0,0-36,25.18" transform="translate(103.97 118.74)"/><path class="cls-3" d="M802.56,1596.34l-27,10c-6.45,2.38-12.95,4.77-19.73,5.91-14,2.35-28.31-.79-42.18-3.91-1.5-.34-3.13-.76-4.06-2s-.49-3.48,1-3.66" transform="translate(103.97 118.74)"/><path class="cls-3" d="M752.37,1531.34a123.08,123.08,0,0,0-39.71-.91" transform="translate(103.97 118.74)"/><path class="cls-3" d="M793.45,1339.17c-6.55-3.85-11-10.34-16.34-15.77s-12.6-10.14-20.06-8.72" transform="translate(103.97 118.74)"/><path class="cls-3" d="M769.28,1410.86a160.07,160.07,0,0,1-73.48-7.74" transform="translate(103.97 118.74)"/><path class="cls-3" d="M780.2,1454.23c-15,5.24-32-7.22-47-2" transform="translate(103.97 118.74)"/><path class="cls-3" d="M1234,1618.46a210.13,210.13,0,0,0-68.38-89.62" transform="translate(103.97 118.74)"/><path class="cls-3" d="M1252.11,1683a41,41,0,0,1-54.42,51.88c-7.6-3.19-14-8.57-20.35-13.87" transform="translate(103.97 118.74)"/><path class="cls-3" d="M1250.49,1667.49c-8.31-23.81-30.86-39.78-54-49.85-7.74-3.38-15.77-6.33-22.62-11.27-16.68-12-23.26-33.26-31-52.34s-20-39.36-40.19-43.34" transform="translate(103.97 118.74)"/><path class="cls-3" d="M1292.16,1528.65l35.65,39.83c1.7,1.91,3.46,3.91,4.1,6.38,1,3.73-.81,7.56-2.54,11l-14,27.87,7.87-6a5.74,5.74,0,0,1,2.79-1.4c1.61-.17,3,1,4.2,2.1,6.63,6.14,13.74,13.23,14.2,22.25.38,7.25-3.7,13.91-7.75,19.94-4.71,7-10.76,14.56-19.18,15-3.71.2-7.32-1.05-10.88-2.11a108.63,108.63,0,0,0-45-3.56" transform="translate(103.97 118.74)"/><path class="cls-3" d="M1173.37,1720.61c-4.55,2.6-9.86-1.68-13.35-5.6q-9.51-10.71-19-21.41c-4.71-5.3-9.46-10.65-12.85-16.88a46.93,46.93,0,0,1-5.38-27.57" transform="translate(103.97 118.74)"/></g></svg>